# xmcd
#
# Track frame offsets:
#	150
#	14458
#	28932
#	42311
#	56154
#	68914
#	82495
#	94386
#	106022
#	120102
#	132443
#	147126
#	159027
#	173896
#	185832
#	198883
#	210874
#	224382
# Disc length: 3150 seconds
# Revision: 6
# Processed by: cddbd v1.5.1PL0 Copyright (c) Steve Scherf et al.
#
# Submitted via: libkcddb 0.10
#
DISCID=010c4c12
DTITLE=John Lee Hooker - Blues kingpins
DYEAR=1961
DGENRE=Blues
TTITLE0=Boogie chillun
TTITLE1=Sally Mae
TTITLE2=Hoogie Boogie
TTITLE3=Hobo blues
TTITLE4=Weeping willow boogie
TTITLE5=Crawlin' king snake
TTITLE6=Howlin' wolf
TTITLE7=Queen bee
TTITLE8=I'm in the mood
TTITLE9=How do you do it
TTITLE10=Anybody seen my baby
TTITLE11=I got eyes for you
TTITLE12=It's been a long time baby
TTITLE13=Love money can't buy
TTITLE14=I tried hard
TTITLE15=Hug and squeeze
TTITLE16=The syndicator
TTITLE17=I'm ready
EXTD=
EXTT0=
EXTT1=
EXTT2=
EXTT3=
EXTT4=
EXTT5=
EXTT6=
EXTT7=
EXTT8=
EXTT9=
EXTT10=
EXTT11=
EXTT12=
EXTT13=
EXTT14=
EXTT15=
EXTT16=
EXTT17=
PLAYORDER=
